<?xml version="1.0" encoding="UTF-8"?>
<!DOCTYPE svg PUBLIC "-//W3C//DTD SVG 1.1//EN" "http://www.w3.org/Graphics/SVG/1.1/DTD/svg11.dtd">
<svg version="1.1" xmlns="http://www.w3.org/2000/svg" xmlns:xlink="http://www.w3.org/1999/xlink" x="0" y="0" width="535" height="90" viewBox="0, 0, 535, 90">
  <g id="Layer_1">
    <path d="M67.463,10.859 Q79.985,22.258 79.985,45 Q79.985,67.292 67.463,79.141 Q58.086,88.799 40.342,88.799 Q22.597,88.799 13.22,79.141 Q0.642,67.292 0.642,45 Q0.642,22.258 13.22,10.859 Q22.597,1.201 40.342,1.201 Q58.086,1.201 67.463,10.859 z M40.342,15.857 Q30.066,15.857 23.945,23.438 Q17.824,31.018 17.824,45 Q17.824,58.982 23.945,66.562 Q30.066,74.143 40.342,74.143 Q50.617,74.143 56.654,66.562 Q62.69,58.982 62.69,45 Q62.69,31.074 56.654,23.466 Q50.617,15.857 40.342,15.857 z" fill="#939397"/>
    <path d="M128.332,56.736 L110.757,56.736 L110.757,86.497 L93.574,86.497 L93.574,3.728 L129.624,3.728 Q142.09,3.728 149.502,10.129 Q156.914,16.531 156.914,29.951 Q156.914,44.607 149.502,50.671 Q142.09,56.736 128.332,56.736 z M139.787,30.063 Q139.787,23.606 136.39,20.854 Q132.993,18.103 126.872,18.103 L110.757,18.103 L110.757,42.473 L126.872,42.473 Q132.993,42.473 136.39,39.497 Q139.787,36.521 139.787,30.063 z" fill="#939397"/>
    <path d="M296.228,86.497 L262.424,27.705 L262.424,86.497 L246.308,86.497 L246.308,3.728 L264.446,3.728 L297.407,61.509 L297.407,3.728 L313.523,3.728 L313.523,86.497 z" fill="#939397"/>
    <path d="M367.429,86.497 L329.919,86.497 L329.919,3.728 L370.124,3.728 Q385.342,3.953 391.687,12.544 Q395.505,17.822 395.505,25.178 Q395.505,32.759 391.687,37.363 Q389.553,39.946 385.398,42.08 Q391.743,44.382 394.972,49.38 Q398.2,54.377 398.2,61.509 Q398.2,68.865 394.494,74.705 Q392.136,78.579 388.598,81.218 Q384.612,84.25 379.193,85.374 Q373.774,86.497 367.429,86.497 z M375.234,70.662 Q380.737,67.966 380.737,60.33 Q380.737,53.872 375.403,51.458 Q372.427,50.11 367.036,50.054 L346.428,50.054 L346.428,72.122 L366.755,72.122 Q372.202,72.122 375.234,70.662 z M374.504,19.395 Q370.63,18.103 364.621,18.103 L346.428,18.103 L346.428,36.353 L366.755,36.353 Q372.202,36.353 375.599,34.303 Q378.996,32.253 378.996,27.031 Q378.996,21.248 374.504,19.395 z" fill="#0E72B6"/>
    <path d="M411.34,3.728 L428.523,3.728 L428.523,86.497 L411.34,86.497 z" fill="#0E72B6"/>
    <path d="M508.371,10.859 Q520.893,22.258 520.893,45 Q520.893,67.292 508.371,79.141 Q498.994,88.799 481.25,88.799 Q463.506,88.799 454.128,79.141 Q441.55,67.292 441.55,45 Q441.55,22.258 454.128,10.859 Q463.506,1.201 481.25,1.201 Q498.994,1.201 508.371,10.859 z M481.25,15.857 Q470.974,15.857 464.853,23.438 Q458.733,31.018 458.733,45 Q458.733,58.982 464.853,66.562 Q470.974,74.143 481.25,74.143 Q491.526,74.143 497.562,66.562 Q503.598,58.982 503.598,45 Q503.598,31.074 497.562,23.466 Q491.526,15.857 481.25,15.857 z" fill="#0E72B6"/>
    <path d="M171.005,3.728 L233.027,3.728 L233.027,17.999 L171.005,17.999 z" fill="#939397"/>
    <path d="M171.005,35.834 L233.027,35.834 L233.027,50.105 L171.005,50.105 z" fill="#939397"/>
    <path d="M171.005,72.027 L233.027,72.027 L233.027,86.298 L171.005,86.298 z" fill="#939397"/>
    <path d="M527.626,1.201 Q529.357,1.201 530.948,2.067 Q532.539,2.933 533.448,4.55 Q534.358,6.167 534.358,7.934 Q534.358,9.691 533.466,11.287 Q532.574,12.882 530.979,13.774 Q529.384,14.666 527.626,14.666 Q525.868,14.666 524.273,13.774 Q522.677,12.882 521.785,11.287 Q520.893,9.691 520.893,7.934 Q520.893,6.167 521.803,4.55 Q522.713,2.933 524.303,2.067 Q525.894,1.201 527.626,1.201 z M527.635,2.52 Q526.246,2.52 524.971,3.214 Q523.697,3.908 522.963,5.209 Q522.229,6.51 522.229,7.934 Q522.229,9.349 522.946,10.632 Q523.662,11.915 524.945,12.636 Q526.228,13.356 527.635,13.356 Q529.05,13.356 530.328,12.636 Q531.607,11.915 532.328,10.632 Q533.049,9.349 533.049,7.934 Q533.049,6.51 532.315,5.209 Q531.581,3.908 530.302,3.214 Q529.023,2.52 527.635,2.52 z M524.585,11.537 L524.585,4.392 L526.035,4.392 Q528.074,4.392 528.32,4.409 Q529.041,4.471 529.441,4.695 Q529.841,4.919 530.109,5.38 Q530.377,5.842 530.377,6.404 Q530.377,7.178 529.871,7.727 Q529.366,8.276 528.452,8.408 Q528.777,8.531 528.953,8.676 Q529.129,8.821 529.436,9.226 Q529.515,9.331 529.964,10.096 L530.807,11.537 L529.014,11.537 L528.417,10.377 Q527.81,9.208 527.415,8.905 Q527.019,8.602 526.413,8.602 L526.035,8.602 L526.035,11.537 z M526.035,7.477 L526.624,7.477 Q527.881,7.477 528.184,7.38 Q528.487,7.283 528.663,7.042 Q528.839,6.8 528.839,6.492 Q528.839,6.193 528.667,5.96 Q528.496,5.728 528.179,5.626 Q527.863,5.525 526.624,5.525 L526.035,5.525 z" fill="#0E72B6"/>
  </g>
</svg>
